<svg xmlns="http://www.w3.org/2000/svg" viewBox="0 0 40 40"><path d="M27 30.5H13c-.8 0-1.5-.7-1.5-1.5V17.5h17V29c0 .8-.7 1.5-1.5 1.5zm-14.5-12V29c0 .3.2.5.5.5h14c.3 0 .5-.2.5-.5V18.5h-15z"/><path d="M28.3 18.5H11.7c-.8 0-1.5-.7-1.5-1.5v-2c0-.8.7-1.5 1.5-1.5h16.7c.8 0 1.5.7 1.5 1.5v2c-.1.8-.7 1.5-1.6 1.5zm-16.6-4c-.3 0-.5.2-.5.5v2c0 .3.2.5.5.5h16.7c.3 0 .5-.2.5-.5v-2c0-.3-.2-.5-.5-.5H11.7z"/><path d="M21.8 30.5h-3.7v-17h3.7v17zm-2.6-1h1.7v-15h-1.7v15z"/><path d="M20.7 13.8c-.2 0-.4-.1-.4-.3-.1-.2-.1-.4 0-.5 1.8-2.3 3.2-3.5 4.5-3.5.7 0 1.2.3 1.7.8.3.4.4.9.2 1.3-.8 1.5-4.9 2.2-6 2.2zm4.1-3.3c-.6 0-1.5.4-3 2.2 1.6-.2 3.6-.9 3.9-1.5 0 0 0-.1-.1-.2-.2-.4-.5-.5-.8-.5zm-5.3 3.3c-1.1 0-5.2-.7-5.9-2.2-.2-.4-.1-.9.2-1.3.4-.6 1-.9 1.7-.8 1.2 0 2.7 1.2 4.5 3.5.1.2.1.4 0 .5-.1.2-.3.3-.5.3zm-4.1-3.3c-.3 0-.6.1-.8.5-.1.1-.1.2-.1.2.3.6 2.3 1.3 3.9 1.5-1.5-1.8-2.4-2.2-3-2.2z"/></svg>