<svg xmlns="http://www.w3.org/2000/svg" viewBox="0 0 40 40"><path class="st0" d="M20 20.7c3 0 5.4-2.4 5.4-5.4S23 9.8 20 9.8c-3 0-5.4 2.4-5.4 5.4s2.4 5.5 5.4 5.5zm6.4-5.4c0 3.3-2.5 6-5.7 6.4v4.6c4.3.1 7.8 1.3 11.6 4 .2.2.3.5.1.7-.2.2-.5.3-.7.1-3.8-2.7-7.3-3.9-11.7-3.8-4.4.1-7.9 1.1-11.8 3.8-.2.1-.5.1-.7-.1-.2-.2-.1-.5.1-.7 3.9-2.8 7.6-3.9 12.1-4v-4.6c-3.4-.1-6.2-3-6.2-6.4 0-3.6 2.9-6.4 6.4-6.4 3.7-.1 6.5 2.8 6.5 6.4zm-5 1.4c1.5 0 2.8-1.3 2.8-2.8s-1.3-2.8-2.8-2.8c-1.5 0-2.8 1.3-2.8 2.8s1.3 2.8 2.8 2.8z"/></svg>