<svg xmlns="http://www.w3.org/2000/svg" viewBox="0 0 40 40"><path d="M17.7 29.8h-6c-.8 0-1.5-.7-1.5-1.5v-6c0-.8.7-1.5 1.5-1.5h6c.8 0 1.5.7 1.5 1.5v6c0 .9-.7 1.5-1.5 1.5zm-6-8c-.3 0-.5.2-.5.5v6c0 .3.2.5.5.5h6c.3 0 .5-.2.5-.5v-6c0-.3-.2-.5-.5-.5h-6zm16.6 8h-6c-.8 0-1.5-.7-1.5-1.5v-6c0-.8.7-1.5 1.5-1.5h6c.8 0 1.5.7 1.5 1.5v6c0 .9-.6 1.5-1.5 1.5zm-6-8c-.3 0-.5.2-.5.5v6c0 .3.2.5.5.5h6c.3 0 .5-.2.5-.5v-6c0-.3-.2-.5-.5-.5h-6zm-4.6-2.6h-6c-.8 0-1.5-.7-1.5-1.5v-6c0-.8.7-1.5 1.5-1.5h6c.8 0 1.5.7 1.5 1.5v6c0 .8-.7 1.5-1.5 1.5zm-6-8c-.3 0-.5.2-.5.5v6c0 .3.2.5.5.5h6c.3 0 .5-.2.5-.5v-6c0-.3-.2-.5-.5-.5h-6zm16.6 8h-6c-.8 0-1.5-.7-1.5-1.5v-6c0-.8.7-1.5 1.5-1.5h6c.8 0 1.5.7 1.5 1.5v6c0 .8-.6 1.5-1.5 1.5zm-6-8c-.3 0-.5.2-.5.5v6c0 .3.2.5.5.5h6c.3 0 .5-.2.5-.5v-6c0-.3-.2-.5-.5-.5h-6z"/></svg>