<?xml version="1.0" encoding="utf-8"?>
<!-- Generator: Adobe Illustrator 19.2.1, SVG Export Plug-In . SVG Version: 6.00 Build 0)  -->
<svg version="1.1" id="Слой_1" xmlns="http://www.w3.org/2000/svg" xmlns:xlink="http://www.w3.org/1999/xlink" x="0px" y="0px"
	 viewBox="0 0 116 72" style="enable-background:new 0 0 116 72;" xml:space="preserve">
<style type="text/css">
	.st0{fill:none;}
</style>
<path class="st0" d="M5.9,37.9h27.9c2.1,0,3.9,1.7,3.9,3.9v25.1c0,2.1-1.7,3.9-3.9,3.9H5.9C3.7,70.8,2,69,2,66.9V41.8
	C2,39.7,3.7,37.9,5.9,37.9z"/>
<path class="st0" d="M44,1.2h27.9c2.1,0,3.9,1.7,3.9,3.9v25.1c0,2.1-1.7,3.9-3.9,3.9H44c-2.1,0-3.9-1.7-3.9-3.9V5.1
	C40.1,3,41.9,1.2,44,1.2z"/>
<path class="st0" d="M82.3,1.2h27.9c2.1,0,3.9,1.7,3.9,3.9v25.1c0,2.1-1.7,3.9-3.9,3.9H82.3c-2.1,0-3.9-1.7-3.9-3.9V5.1
	C78.4,3,80.1,1.2,82.3,1.2z"/>
<path class="st0" d="M44,37.9h27.9c2.1,0,3.9,1.7,3.9,3.9v25.1c0,2.1-1.7,3.9-3.9,3.9H44c-2.1,0-3.9-1.7-3.9-3.9V41.8
	C40.1,39.7,41.9,37.9,44,37.9z"/>
<path class="st0" d="M82.3,37.9h27.9c2.1,0,3.9,1.7,3.9,3.9v25.1c0,2.1-1.7,3.9-3.9,3.9H82.3c-2.1,0-3.9-1.7-3.9-3.9V41.8
	C78.4,39.7,80.1,37.9,82.3,37.9z"/>
<path class="st0" d="M5.9,1.2h27.9c2.1,0,3.9,1.7,3.9,3.9v25.1c0,2.1-1.7,3.9-3.9,3.9H5.9c-2.1,0-3.9-1.7-3.9-3.9V5.1
	C2,3,3.7,1.2,5.9,1.2z"/>
</svg>
