<?xml version="1.0" encoding="utf-8"?>
<!-- Generator: Adobe Illustrator 19.2.1, SVG Export Plug-In . SVG Version: 6.00 Build 0)  -->
<svg version="1.1" id="Слой_1" xmlns="http://www.w3.org/2000/svg" xmlns:xlink="http://www.w3.org/1999/xlink" x="0px" y="0px"
	 viewBox="0 0 116 72" style="enable-background:new 0 0 116 72;" xml:space="preserve">
<style type="text/css">
	.st0{fill:none;}
</style>
<g>
	<path class="st0" d="M63.9,38.4h46.7c1.9,0,3.4,1.5,3.4,3.4v25.4c0,1.9-1.5,3.4-3.4,3.4H63.9c-1.9,0-3.4-1.5-3.4-3.4V41.9
		C60.4,40,62,38.4,63.9,38.4z"/>
	<path class="st0" d="M5.4,38.4h46.7c1.9,0,3.4,1.5,3.4,3.4v25.4c0,1.9-1.5,3.4-3.4,3.4H5.4c-1.9,0-3.4-1.5-3.4-3.4V41.9
		C2,40,3.5,38.4,5.4,38.4z"/>
	<path class="st0" d="M63.9,1.4h46.7c1.9,0,3.4,1.5,3.4,3.4v25.4c0,1.9-1.5,3.4-3.4,3.4H63.9c-1.9,0-3.4-1.5-3.4-3.4V4.8
		C60.4,2.9,62,1.4,63.9,1.4z"/>
	<path class="st0" d="M5.4,1.4h46.7c1.9,0,3.4,1.5,3.4,3.4v25.4c0,1.9-1.5,3.4-3.4,3.4H5.4C3.5,33.6,2,32,2,30.1V4.8
		C2,2.9,3.5,1.4,5.4,1.4z"/>
</g>
</svg>
