<?xml version="1.0" encoding="utf-8"?>
<!-- Generator: Adobe Illustrator 19.2.1, SVG Export Plug-In . SVG Version: 6.00 Build 0)  -->
<svg version="1.1" id="Слой_1" xmlns="http://www.w3.org/2000/svg" xmlns:xlink="http://www.w3.org/1999/xlink" x="0px" y="0px"
	 viewBox="0 0 116 72" style="enable-background:new 0 0 116 72;" xml:space="preserve">
<style type="text/css">
	.st0{fill:none;}
</style>
<g>
	<path class="st0" d="M63.8,1.2h46.3c2.1,0,3.9,1.7,3.9,3.9v61.9c0,2.1-1.7,3.9-3.9,3.9H63.8c-2.1,0-3.9-1.7-3.9-3.9V5.1
		C59.9,2.9,61.7,1.2,63.8,1.2z"/>
	<path class="st0" d="M5.9,1.2h46.3c2.1,0,3.9,1.7,3.9,3.9v61.9c0,2.1-1.7,3.9-3.9,3.9H5.9c-2.1,0-3.9-1.7-3.9-3.9V5.1
		C2,2.9,3.7,1.2,5.9,1.2z"/>
</g>
</svg>
