<svg xmlns="http://www.w3.org/2000/svg" viewBox="0 0 32 32">
	<g>
		<path d="M8.8,27.2H6.2C5,27.2,4,26.2,4,25V13.2C4,12,5,11,6.2,11h2.6c1.2,0,2.2,1,2.2,2.2V25C11.1,26.2,10.1,27.2,8.8,27.2z M6.2,11.8c-0.7,0-1.3,0.6-1.3,1.3V25c0,0.7,0.6,1.3,1.3,1.3h2.6c0.7,0,1.3-0.6,1.3-1.3V13.2c0-0.7-0.6-1.3-1.3-1.3L6.2,11.8L6.2,11.8z"/>
		<path d="M25.8,27.2h-2.6c-1.2,0-2.2-1-2.2-2.2v-8.7c0-1.2,1-2.2,2.2-2.2h2.6c1.2,0,2.2,1,2.2,2.2V25C28,26.2,27,27.2,25.8,27.2z M23.2,14.9c-0.7,0-1.3,0.6-1.3,1.3V25c0,0.7,0.6,1.3,1.3,1.3h2.6c0.7,0,1.3-0.6,1.3-1.3v-8.7c0-0.7-0.6-1.3-1.3-1.3h-2.6V14.9z"/>
		<path d="M17.3,27.2h-2.6c-1.2,0-2.2-1-2.2-2.2V7c0-1.2,1-2.2,2.2-2.2h2.6c1.2,0,2.2,1,2.2,2.2v18C19.5,26.2,18.5,27.2,17.3,27.2z M14.7,5.7c-0.7,0-1.3,0.6-1.3,1.3v18c0,0.7,0.6,1.3,1.3,1.3h2.6c0.7,0,1.3-0.6,1.3-1.3V7c0-0.7-0.6-1.3-1.3-1.3H14.7z"/>
	</g>
</svg>
