<svg xmlns="http://www.w3.org/2000/svg" viewBox="0 0 24 24">
	<g>
		<path d="M22.6,24H1.4C0.6,24,0,23.4,0,22.6V11.3c0-0.8,0.6-1.4,1.4-1.4h21.1c0.8,0,1.4,0.6,1.4,1.4v11.2C24,23.4,23.4,24,22.6,24z M1.4,10.8C1.2,10.8,1,11,1,11.3v11.2C1,22.8,1.2,23,1.4,23h21.1c0.3,0,0.5-0.2,0.5-0.5V11.3c0-0.3-0.2-0.5-0.5-0.5H1.4z"/>
		<path d="M22.6,7.5H1.4C0.6,7.5,0,6.9,0,6.1V1.4C0,0.6,0.6,0,1.4,0h21.1C23.4,0,24,0.6,24,1.4v4.7C24,6.9,23.4,7.5,22.6,7.5z M1.4,1C1.2,1,1,1.2,1,1.4v4.7c0,0.3,0.2,0.5,0.5,0.5h21.1c0.3,0,0.5-0.2,0.5-0.5V1.4C23,1.2,22.8,1,22.6,1H1.4z"/>
	</g>
</svg>
