<svg xmlns="http://www.w3.org/2000/svg" viewBox="0 0 32 32">
	<g>
		<path d="M26.6,28H5.4C4.6,28,4,27.4,4,26.6V15.3c0-0.8,0.6-1.4,1.4-1.4h21.1c0.8,0,1.4,0.6,1.4,1.4v11.2C28,27.4,27.4,28,26.6,28z M5.4,14.8C5.2,14.8,5,15,5,15.3v11.2C5,26.8,5.2,27,5.4,27h21.1c0.3,0,0.5-0.2,0.5-0.5V15.3c0-0.3-0.2-0.5-0.5-0.5H5.4z"/>
		<path d="M26.6,11.5H5.4c-0.8,0-1.4-0.6-1.4-1.4V5.4C4,4.6,4.6,4,5.4,4h21.1C27.4,4,28,4.6,28,5.4v4.7C28,10.9,27.4,11.5,26.6,11.5z M5.4,5C5.2,5,5,5.2,5,5.4v4.7c0,0.3,0.2,0.5,0.5,0.5h21.1c0.3,0,0.5-0.2,0.5-0.5V5.4C27,5.2,26.8,5,26.6,5H5.4z"/>
	</g>
</svg>
