<svg xmlns="http://www.w3.org/2000/svg" viewBox="0 0 24 24">
	<g>
		<path d="M14.2,24H4.6c-1.3,0-2.4-1.1-2.4-2.4V2.4C2.2,1.1,3.2,0,4.6,0h9.6c0.3,0,0.5,0.2,0.5,0.5S14.4,1,14.2,1H4.6C3.8,1,3.1,1.6,3.1,2.4v19.2c0,0.8,0.6,1.4,1.4,1.4h9.6c0.3,0,0.5,0.2,0.5,0.5S14.4,24,14.2,24z"/>
		<path class="st0" d="M9.8,11.5c-0.3,0-0.5,0.2-0.5,0.5c0,0.3,0.2,0.5,0.5,0.5V11.5z M21.7,12.3c0.2-0.2,0.2-0.5,0-0.7l-3.1-3.1c-0.2-0.2-0.5-0.2-0.7,0c-0.2,0.2-0.2,0.5,0,0.7l2.7,2.7L18,14.7c-0.2,0.2-0.2,0.5,0,0.7c0.2,0.2,0.5,0.2,0.7,0L21.7,12.3z M9.8,12.5h11.5v-1H9.8V12.5z"/>
	</g>
</svg>
