<svg xmlns="http://www.w3.org/2000/svg" viewBox="0 0 24 24">
<g>
	<path d="M2.8,20.9c-0.4,0-0.8-0.2-1.1-0.4c-0.4-0.4-0.6-1.1-0.3-1.7l2.7-6c0.1-0.3,0.3-0.5,0.5-0.7L15.9,0.9c0.9-0.9,2.6-0.9,3.5,0l2,2c1,1,1,2.6,0,3.5L10.2,17.5C10,17.7,9.8,17.9,9.5,18l-6,2.7C3.3,20.9,3.1,20.9,2.8,20.9z M17.6,1.2c-0.4,0-0.8,0.2-1.1,0.4L5.4,12.7c-0.1,0.1-0.2,0.3-0.3,0.4l-2.7,6c-0.1,0.3,0,0.5,0.1,0.6c0.1,0.1,0.3,0.2,0.6,0.1l6-2.7c0.2-0.1,0.3-0.2,0.4-0.3L20.7,5.7c0.6-0.6,0.6-1.5,0-2.1l-2-2C18.4,1.3,18,1.2,17.6,1.2z"/>
	<path d="M22.2,23.8H2.8c-0.3,0-0.5-0.2-0.5-0.5s0.2-0.5,0.5-0.5h19.4c0.3,0,0.5,0.2,0.5,0.5S22.4,23.8,22.2,23.8z"/>
</g>
</svg>
