<svg xmlns="http://www.w3.org/2000/svg" viewBox="0 0 116 72"><path d="M5.9 37.9h27.9c2.1 0 3.9 1.7 3.9 3.9v25.1c0 2.1-1.7 3.9-3.9 3.9H5.9C3.7 70.8 2 69 2 66.9V41.8c0-2.1 1.7-3.9 3.9-3.9zM44 1.2h27.9c2.1 0 3.9 1.7 3.9 3.9v25.1c0 2.1-1.7 3.9-3.9 3.9H44c-2.1 0-3.9-1.7-3.9-3.9V5.1c0-2.1 1.8-3.9 3.9-3.9zm38.3 0h27.9c2.1 0 3.9 1.7 3.9 3.9v25.1c0 2.1-1.7 3.9-3.9 3.9H82.3c-2.1 0-3.9-1.7-3.9-3.9V5.1c0-2.1 1.7-3.9 3.9-3.9zM44 37.9h27.9c2.1 0 3.9 1.7 3.9 3.9v25.1c0 2.1-1.7 3.9-3.9 3.9H44c-2.1 0-3.9-1.7-3.9-3.9V41.8c0-2.1 1.8-3.9 3.9-3.9zm38.3 0h27.9c2.1 0 3.9 1.7 3.9 3.9v25.1c0 2.1-1.7 3.9-3.9 3.9H82.3c-2.1 0-3.9-1.7-3.9-3.9V41.8c0-2.1 1.7-3.9 3.9-3.9zM5.9 1.2h27.9c2.1 0 3.9 1.7 3.9 3.9v25.1c0 2.1-1.7 3.9-3.9 3.9H5.9c-2.1 0-3.9-1.7-3.9-3.9V5.1C2 3 3.7 1.2 5.9 1.2z" fill="none"/></svg>