<svg xmlns="http://www.w3.org/2000/svg" viewBox="0 0 116 72"><path d="M63.9 38.4h46.7c1.9 0 3.4 1.5 3.4 3.4v25.4c0 1.9-1.5 3.4-3.4 3.4H63.9c-1.9 0-3.4-1.5-3.4-3.4V41.9c-.1-1.9 1.5-3.5 3.4-3.5zm-58.5 0h46.7c1.9 0 3.4 1.5 3.4 3.4v25.4c0 1.9-1.5 3.4-3.4 3.4H5.4c-1.9 0-3.4-1.5-3.4-3.4V41.9c0-1.9 1.5-3.5 3.4-3.5zm58.5-37h46.7c1.9 0 3.4 1.5 3.4 3.4v25.4c0 1.9-1.5 3.4-3.4 3.4H63.9c-1.9 0-3.4-1.5-3.4-3.4V4.8c-.1-1.9 1.5-3.4 3.4-3.4zm-58.5 0h46.7c1.9 0 3.4 1.5 3.4 3.4v25.4c0 1.9-1.5 3.4-3.4 3.4H5.4C3.5 33.6 2 32 2 30.1V4.8c0-1.9 1.5-3.4 3.4-3.4z" fill="none"/></svg>