<svg width="195" height="195" fill="none" xmlns="http://www.w3.org/2000/svg"><circle cx="97.5" cy="97.5" r="96.5" stroke="#00BBD3"/><path fill-rule="evenodd" clip-rule="evenodd" d="M100.122 95.94c16.614 0 30.082-13.47 30.082-30.083 0-16.614-13.468-30.082-30.082-30.082S70.04 49.243 70.04 65.857c0 16.162 12.745 29.347 28.732 30.052v-1.672h1v1.7c.117.002.233.002.35.002zM69.04 65.856c0 16.714 13.192 30.347 29.732 31.053v23.877c-21.243.458-38.434 5.693-57.05 18.99a.5.5 0 00.581.814c18.832-13.451 36.153-18.565 57.826-18.826 21.655-.261 38.974 5.369 57.813 18.826a.501.501 0 00.581-.814C139.524 126.205 122 120.5 100.117 120.764l-.345.004V96.937c.117.002.233.002.35.002 17.166 0 31.082-13.916 31.082-31.082s-13.916-31.082-31.082-31.082S69.04 48.69 69.04 65.857zm37.841 6.757c7.463 0 13.514-6.05 13.514-13.514 0-7.463-6.051-13.514-13.514-13.514-7.464 0-13.514 6.05-13.514 13.514 0 7.464 6.05 13.514 13.514 13.514z" fill="#00BBD3"/></svg>