<svg width="17" height="16" fill="none" xmlns="http://www.w3.org/2000/svg"><path opacity=".5" fill-rule="evenodd" clip-rule="evenodd" d="M11.754 10.057h-.744l-.278-.274a5.67 5.67 0 001.487-3.84C12.219 2.65 9.523 0 6.176 0 2.83 0 .134 2.651.134 5.943c0 3.291 2.696 5.943 6.042 5.943 1.488 0 2.882-.549 3.905-1.463l.279.274v.732L15.008 16l1.394-1.371-4.648-4.572zm-5.578 0c-2.324 0-4.183-1.828-4.183-4.114 0-2.286 1.86-4.114 4.183-4.114 2.324 0 4.184 1.828 4.184 4.114 0 2.286-1.86 4.114-4.184 4.114z" fill="#04405A"/></svg>