<svg width="24" height="19" fill="none" xmlns="http://www.w3.org/2000/svg"><path d="M3.917 7H1.306C.585 7 0 7.56 0 8.25v9.5C0 18.44.585 19 1.306 19h2.611c.721 0 1.306-.56 1.306-1.25v-9.5c0-.69-.585-1.25-1.306-1.25zm9.403-3h-2.612c-.721 0-1.306.56-1.306 1.25v12.5c0 .69.585 1.25 1.306 1.25h2.611c.721 0 1.306-.56 1.306-1.25V5.25c0-.69-.585-1.25-1.306-1.25zm9.374-4h-2.611c-.721 0-1.306.56-1.306 1.25v16.5c0 .69.585 1.25 1.306 1.25h2.611c.721 0 1.306-.56 1.306-1.25V1.25C24 .56 23.415 0 22.694 0z"/></svg>