<svg width="10" height="10" viewBox="0 0 10 10" fill="none" xmlns="http://www.w3.org/2000/svg">
  <g opacity="0.6">
    <path d="M1.31521 10H0V8.68479L7.41637 1.25L8.75 2.58387L1.31521 10Z"/>
    <path d="M8.98191 2.5L7.5 1.01809L8.34202 0.202662C8.47207 0.0718108 8.67154 2.35191e-06 8.85638 2.35191e-06C8.94737 -0.000235374 9.03751 0.0175508 9.1216 0.0523344C9.20568 0.0871179 9.28204 0.13821 9.34627 0.202662L9.7984 0.654789C9.86258 0.718948 9.91343 0.795169 9.94803 0.879064C9.98263 0.962959 10.0003 1.05287 10 1.14362C10 1.32979 9.92792 1.52793 9.79734 1.65851L8.98191 2.5Z"/>
  </g>
</svg>
