<svg xmlns="http://www.w3.org/2000/svg" viewBox="0 0 16 16">
	<path d="M8,16c-4.4,0-8-3.6-8-8s3.6-8,8-8s8,3.6,8,8S12.4,16,8,16z M8,1C4.1,1,1,4.1,1,8c0,3.9,3.1,7,7,7c3.9,0,7-3.1,7-7C15,4.1,11.9,1,8,1z"/>
	<path d="M8,12.5c-1,0-1.9-0.3-2.7-0.8c-0.8-0.5-1.4-1.2-1.8-2.1C3.4,9.4,3.6,9.1,3.8,9c0.3-0.1,0.5,0,0.6,0.3c0.2,0.6,0.7,1.2,1.4,1.6c0.6,0.4,1.4,0.6,2.2,0.6c0.8,0,1.6-0.3,2.2-0.7c0.6-0.4,1.1-1,1.3-1.6c0.1-0.3,0.4-0.4,0.6-0.3c0.3,0.1,0.4,0.4,0.3,0.6c-0.3,0.9-0.9,1.6-1.7,2.2C10,12.2,9.1,12.5,8,12.5C8,12.5,8,12.5,8,12.5z"/>
	<circle cx="5.3" cy="6" r="0.7"/>
	<circle cx="10.7" cy="6" r="0.7"/>
</svg>
