<svg width="24" height="19" viewBox="0 0 24 19" fill="none" xmlns="http://www.w3.org/2000/svg">
  <path d="M3.91695 7H1.30565C0.58456 7 0 7.55964 0 8.25V17.75C0 18.4403 0.58456 19 1.30565 19H3.91695C4.63804 19 5.2226 18.4403 5.2226 17.75V8.25C5.2226 7.55964 4.63804 7 3.91695 7Z"/>
  <path d="M13.3193 4H10.708C9.9869 4 9.40234 4.55964 9.40234 5.25V17.75C9.40234 18.4403 9.9869 19 10.708 19H13.3193C14.0404 19 14.6249 18.4403 14.6249 17.75V5.25C14.6249 4.55964 14.0404 4 13.3193 4Z"/>
  <path d="M22.6943 0H20.083C19.3619 0 18.7773 0.559643 18.7773 1.25V17.75C18.7773 18.4403 19.3619 19 20.083 19H22.6943C23.4154 19 23.9999 18.4403 23.9999 17.75V1.25C23.9999 0.559643 23.4154 0 22.6943 0Z"/>
</svg>
