<svg xmlns="http://www.w3.org/2000/svg" viewBox="0 0 32 32"><path d="M8.8 27.2H6.2C5 27.2 4 26.2 4 25V13.2C4 12 5 11 6.2 11h2.6c1.2 0 2.2 1 2.2 2.2V25c.1 1.2-.9 2.2-2.2 2.2zM6.2 11.8c-.7 0-1.3.6-1.3 1.3V25c0 .7.6 1.3 1.3 1.3h2.6c.7 0 1.3-.6 1.3-1.3V13.2c0-.7-.6-1.3-1.3-1.3l-2.6-.1zm19.6 15.4h-2.6c-1.2 0-2.2-1-2.2-2.2v-8.7c0-1.2 1-2.2 2.2-2.2h2.6c1.2 0 2.2 1 2.2 2.2V25c0 1.2-1 2.2-2.2 2.2zm-2.6-12.3c-.7 0-1.3.6-1.3 1.3V25c0 .7.6 1.3 1.3 1.3h2.6c.7 0 1.3-.6 1.3-1.3v-8.7c0-.7-.6-1.3-1.3-1.3h-2.6v-.1zm-5.9 12.3h-2.6c-1.2 0-2.2-1-2.2-2.2V7c0-1.2 1-2.2 2.2-2.2h2.6c1.2 0 2.2 1 2.2 2.2v18c0 1.2-1 2.2-2.2 2.2zM14.7 5.7c-.7 0-1.3.6-1.3 1.3v18c0 .7.6 1.3 1.3 1.3h2.6c.7 0 1.3-.6 1.3-1.3V7c0-.7-.6-1.3-1.3-1.3h-2.6z"/></svg>