<svg xmlns="http://www.w3.org/2000/svg" viewBox="0 0 32 32"><path d="M16 28c-4.3 0-8.3-1.2-11.3-3.5S0 19.2 0 16s1.7-6.2 4.7-8.5S11.7 4 16 4c4.3 0 8.3 1.2 11.3 3.5S32 12.8 32 16s-1.7 6.2-4.7 8.5S20.3 28 16 28zm0-23C11.9 5 8.1 6.2 5.3 8.3 2.5 10.4 1 13.1 1 16s1.5 5.6 4.3 7.7C8.1 25.8 11.9 27 16 27s7.9-1.2 10.7-3.3c2.8-2.1 4.3-4.8 4.3-7.7s-1.5-5.6-4.3-7.7C23.9 6.2 20.1 5 16 5z"/><path d="M16 22c-3.3 0-6-2.7-6-6s2.7-6 6-6 6 2.7 6 6-2.7 6-6 6zm0-11c-2.8 0-5 2.2-5 5s2.2 5 5 5 5-2.2 5-5-2.2-5-5-5z"/></svg>