<svg xmlns="http://www.w3.org/2000/svg" viewBox="0 0 40 40">
	<path d="M16.5,14.6c0-1.8,1.4-3.2,3.2-3.2s3.2,1.4,3.2,3.2s-1.4,3.2-3.2,3.2S16.5,16.4,16.5,14.6z M19.8,10.4c-2.3,0-4.2,1.9-4.2,4.2s1.9,4.2,4.2,4.2S24,17,24,14.6S22.1,10.4,19.8,10.4z M20.1,19.3c-3.1,0-5.1,1.2-6.3,2.7c-1.2,1.5-1.6,3.2-1.6,4.2c0,0.2,0.1,0.4,0.3,0.5l7.4,3c0.1,0,0.3,0,0.4,0l7.1-3c0.2-0.1,0.3-0.3,0.3-0.5c0-1-0.4-2.7-1.5-4.2C25,20.5,23.1,19.3,20.1,19.3z M20.1,28.6l-6.9-2.8c0.1-0.9,0.4-2.1,1.3-3.2c1-1.2,2.7-2.3,5.5-2.3c2.7,0,4.3,1,5.3,2.3c0.9,1.1,1.2,2.4,1.3,3.2L20.1,28.6z"/>
</svg>
