<svg xmlns="http://www.w3.org/2000/svg" viewBox="0 0 40 40">
<g>
	<path d="M27,28.5H13c-0.8,0-1.5-0.7-1.5-1.5v-7.1c0-0.8,0.7-1.5,1.5-1.5h14c0.8,0,1.5,0.7,1.5,1.5V27C28.5,27.8,27.8,28.5,27,28.5z M13,19.4c-0.3,0-0.5,0.2-0.5,0.5V27c0,0.3,0.2,0.5,0.5,0.5h14c0.3,0,0.5-0.2,0.5-0.5v-7.1c0-0.3-0.2-0.5-0.5-0.5H13z"/>
	<path d="M27,17.1H13c-0.8,0-1.5-0.7-1.5-1.5V13c0-0.8,0.7-1.5,1.5-1.5h14c0.8,0,1.5,0.7,1.5,1.5v2.6C28.5,16.4,27.8,17.1,27,17.1z M13,12.5c-0.3,0-0.5,0.2-0.5,0.5v2.6c0,0.3,0.2,0.5,0.5,0.5h14c0.3,0,0.5-0.2,0.5-0.5V13c0-0.3-0.2-0.5-0.5-0.5H13z"/>
</g>
</svg>
