<svg xmlns="http://www.w3.org/2000/svg" viewBox="0 0 40 40">
<g>
	<path d="M27,30.5H13c-0.8,0-1.5-0.7-1.5-1.5V17.5h17V29C28.5,29.8,27.8,30.5,27,30.5z M12.5,18.5V29c0,0.3,0.2,0.5,0.5,0.5h14c0.3,0,0.5-0.2,0.5-0.5V18.5H12.5z"/>
	<path d="M28.3,18.5H11.7c-0.8,0-1.5-0.7-1.5-1.5v-2c0-0.8,0.7-1.5,1.5-1.5h16.7c0.8,0,1.5,0.7,1.5,1.5v2C29.8,17.8,29.2,18.5,28.3,18.5z M11.7,14.5c-0.3,0-0.5,0.2-0.5,0.5v2c0,0.3,0.2,0.5,0.5,0.5h16.7c0.3,0,0.5-0.2,0.5-0.5v-2c0-0.3-0.2-0.5-0.5-0.5H11.7z"/>
	<path d="M21.8,30.5h-3.7v-17h3.7V30.5z M19.2,29.5h1.7v-15h-1.7V29.5z"/>
	<path d="M20.7,13.8c-0.2,0-0.4-0.1-0.4-0.3c-0.1-0.2-0.1-0.4,0-0.5c1.8-2.3,3.2-3.5,4.5-3.5c0.7,0,1.2,0.3,1.7,0.8c0.3,0.4,0.4,0.9,0.2,1.3C25.9,13.1,21.8,13.8,20.7,13.8z M24.8,10.5C24.8,10.5,24.8,10.5,24.8,10.5c-0.6,0-1.5,0.4-3,2.2c1.6-0.2,3.6-0.9,3.9-1.5c0,0,0-0.1-0.1-0.2C25.4,10.6,25.1,10.5,24.8,10.5z"/>
	<path d="M19.5,13.8c-1.1,0-5.2-0.7-5.9-2.2c-0.2-0.4-0.1-0.9,0.2-1.3c0.4-0.6,1-0.9,1.7-0.8c1.2,0,2.7,1.2,4.5,3.5c0.1,0.2,0.1,0.4,0,0.5C19.9,13.7,19.7,13.8,19.5,13.8z M15.4,10.5c-0.3,0-0.6,0.1-0.8,0.5c-0.1,0.1-0.1,0.2-0.1,0.2c0.3,0.6,2.3,1.3,3.9,1.5C16.9,10.9,16,10.5,15.4,10.5C15.4,10.5,15.4,10.5,15.4,10.5z"/>
</g>
</svg>
