<svg xmlns="http://www.w3.org/2000/svg" viewBox="0 0 40 40">
	<path class="st0" d="M20,20.7c3,0,5.4-2.4,5.4-5.4S23,9.8,20,9.8c-3,0-5.4,2.4-5.4,5.4S17,20.7,20,20.7z M26.4,15.3c0,3.3-2.5,6-5.7,6.4v4.6c4.3,0.1,7.8,1.3,11.6,4c0.2,0.2,0.3,0.5,0.1,0.7c-0.2,0.2-0.5,0.3-0.7,0.1c-3.8-2.7-7.3-3.9-11.7-3.8c-4.4,0.1-7.9,1.1-11.8,3.8C8,31.2,7.7,31.2,7.5,31c-0.2-0.2-0.1-0.5,0.1-0.7c3.9-2.8,7.6-3.9,12.1-4v-4.6c-3.4-0.1-6.2-3-6.2-6.4c0-3.6,2.9-6.4,6.4-6.4C23.6,8.8,26.4,11.7,26.4,15.3z M21.4,16.7c1.5,0,2.8-1.3,2.8-2.8s-1.3-2.8-2.8-2.8c-1.5,0-2.8,1.3-2.8,2.8S19.9,16.7,21.4,16.7z"/>
</svg>
